<svg width="21" height="21" viewBox="0 0 21 21" fill="none" xmlns="http://www.w3.org/2000/svg">
<path fill-rule="evenodd" clip-rule="evenodd" d="M2.375 10.1816C2.375 5.69584 6.0142 2.05664 10.5 2.05664C14.9858 2.05664 18.625 5.69584 18.625 10.1816C18.625 14.6674 14.9858 18.3066 10.5 18.3066C6.0142 18.3066 2.375 14.6674 2.375 10.1816ZM10.5 3.30664C6.70455 3.30664 3.625 6.38619 3.625 10.1816C3.625 13.9771 6.70455 17.0566 10.5 17.0566C14.2954 17.0566 17.375 13.9771 17.375 10.1816C17.375 6.38619 14.2954 3.30664 10.5 3.30664ZM10.3184 6.61298C10.5634 6.36986 10.9591 6.3714 11.2023 6.61642L14.303 9.74142C14.5448 9.9851 14.5448 10.3782 14.303 10.6219L11.2023 13.7469C10.9591 13.9919 10.5634 13.9934 10.3184 13.7503C10.0733 13.5072 10.0718 13.1114 10.3149 12.8664L12.3588 10.8066H7.14062C6.79545 10.8066 6.51562 10.5268 6.51562 10.1816C6.51562 9.83646 6.79545 9.55664 7.14062 9.55664H12.3588L10.3149 7.49686C10.0718 7.25183 10.0733 6.85611 10.3184 6.61298Z" fill="#1F1F1F"/>
</svg>
